<svg xmlns="http://www.w3.org/2000/svg" viewBox="0 0 100 100">
  <!-- Background Circle -->
  <circle cx="50" cy="50" r="48" fill="#FFEB3B" />
  <circle cx="50" cy="50" r="44" fill="#222222" />
  
  <!-- Popcorn Container -->
  <path d="M26 35 L26 75 Q26 80, 31 80 L69 80 Q74 80, 74 75 L74 35" fill="#D32F2F" />
  <path d="M28 35 L28 73 Q28 78, 33 78 L67 78 Q72 78, 72 73 L72 35" fill="#F44336" />
  <rect x="28" y="35" width="44" height="10" fill="#F44336" rx="2" ry="2" />
  <rect x="32" y="32" width="36" height="6" fill="white" rx="2" ry="2" />
  
  <!-- Popcorn Pieces -->
  <circle cx="38" cy="30" r="8" fill="white" />
  <circle cx="50" cy="25" r="9" fill="white" />
  <circle cx="62" cy="30" r="8" fill="white" />
  <circle cx="30" cy="38" r="7" fill="white" />
  <circle cx="42" cy="38" r="7" fill="white" />
  <circle cx="56" cy="38" r="7" fill="white" />
  <circle cx="70" cy="38" r="7" fill="white" />
  <circle cx="36" cy="50" r="8" fill="white" />
  <circle cx="50" cy="48" r="9" fill="white" />
  <circle cx="64" cy="50" r="8" fill="white" />
  
  <!-- Subtle Shadow Details -->
  <path d="M38 32a8 8 0 0 1-8-8 8 8 0 0 0 8 8z" fill="#EEEEEE" opacity="0.5" />
  <path d="M50 27a9 9 0 0 1-9-9 9 9 0 0 0 9 9z" fill="#EEEEEE" opacity="0.5" />
  <path d="M62 32a8 8 0 0 1-8-8 8 8 0 0 0 8 8z" fill="#EEEEEE" opacity="0.5" />
</svg>